#!OML:ASF H:\Terrain\Patient Classification 1\Terrain2\Thursday\justin.ASF
:FULLY-SPECIFIED
:DEGREES
1736
root 18.3861 17.623 -22.2919 554.641 85.7159 555.768
lowerback 2.79806 0.411884 -1.32521
upperback 2.0634 0.557763 2.19215
thorax 0.513909 0.269234 2.98145
lowerneck -15.7388 -2.87712 -9.44546
upperneck 28.3276 -1.52026 2.54163
head 12.0616 -1.14728 2.38959
rclavicle 1.35422e-014 2.38542e-014
rhumerus -34.1757 -19.2708 -73.9173
rradius 25.599
rwrist -7.70989
rhand -19.8495 13.2904
rfingers 7.12502
rthumb 6.48509 -16.5903
lclavicle 1.35422e-014 2.38542e-014
lhumerus -35.7893 5.42193 82.8176
lradius 35.1144
lwrist 3.23523
lhand -16.7472 21.4148
lfingers 7.12502
lthumb 9.47931 51.1816
rfemur -24.4735 -9.21258 18.8687
rtibia 66.1988
rfoot -6.60918 -0.00823606
rtoes 2.79057
lfemur -5.07218 3.57549 -23.0461
ltibia 19.5054
lfoot -7.32404 -13.5606
ltoes 19.2423
1737
root 18.4884 17.6073 -22.2956 550.966 85.5785 552.037
lowerback 2.80234 0.168764 -1.74959
upperback 2.1082 0.224297 2.21199
thorax 0.577326 0.096399 3.24955
lowerneck -15.9458 -2.65809 -9.2626
upperneck 28.2328 -1.1896 2.34154
head 12.0391 -1.00712 2.32962
rclavicle 1.1778e-014 4.77083e-015
rhumerus -34.0025 -18.9568 -74.1867
rradius 25.6879
rwrist -7.38542
rhand -20.0928 12.8655
rfingers 7.12502
rthumb 6.25018 -17.0223
lclavicle 1.1778e-014 4.77083e-015
lhumerus -35.7499 5.86192 82.5969
lradius 35.7931
lwrist 3.29475
lhand -16.89 21.5907
lfingers 7.12502
lthumb 9.34145 51.3637
rfemur -25.1955 -9.29906 18.6764
rtibia 65.0301
rfoot -7.43994 -0.271534
rtoes 2.78573
lfemur -4.97953 3.37888 -23.3106
ltibia 19.982
lfoot -7.78749 -13.5831
ltoes 20.05
1738
root 18.5907 17.5868 -22.296 551.654 85.3428 552.742
lowerback 2.84769 -0.225013 -1.83549
upperback 2.25035 -0.302419 2.09868
thorax 0.734572 -0.170821 3.19282
lowerneck -16.4646 -2.32017 -8.31604
upperneck 28.1692 -0.867698 2.02824
head 12.0816 -0.809592 2.09595
rclavicle 1.32192e-014 -6.75868e-015
rhumerus -33.5806 -18.3903 -75.15
rradius 25.6206
rwrist -7.45646
rhand -20.6617 12.9653
rfingers 7.12502
rthumb 5.70094 -16.938
lclavicle 1.32192e-014 -6.75868e-015
lhumerus -35.5917 6.24614 81.8195
lradius 36.4958
lwrist 3.57122
lhand -16.8661 21.7594
lfingers 7.12502
lthumb 9.36454 51.5314
rfemur -25.767 -9.26721 18.8988
rtibia 63.7065
rfoot -8.2657 -0.704565
rtoes 2.11566
lfemur -4.75713 3.28061 -23.1666
ltibia 20.3039
lfoot -8.33318 -13.6693
ltoes 19.3285
1739
root 18.6914 17.5629 -22.2982 549.325 85.2484 550.417
lowerback 2.94894 0.173652 -1.77662
upperback 2.16457 0.229451 2.12296
thorax 0.553044 0.0992374 3.17251
lowerneck -15.825 -2.80733 -9.20124
upperneck 27.8713 -1.4995 2.47527
head 11.8914 -1.12081 2.31638
rclavicle -5.29264e-015 -2.38542e-015
rhumerus -34.2403 -18.677 -74.4486
rradius 25.8495
rwrist -8.10605
rhand -20.7106 12.9853
rfingers 7.12502
rthumb 5.65378 -16.9193
lclavicle -5.29264e-015 -2.38542e-015
lhumerus -35.4313 5.04727 82.5304
lradius 37.0506
lwrist 3.57354
lhand -16.7859 21.6266
lfingers 7.12502
lthumb 9.44191 51.3951
rfemur -26.2591 -9.3167 18.8977
rtibia 62.2377
rfoot -8.98177 -1.31636
rtoes -2.16615
lfemur -4.46891 3.37478 -23.3281
ltibia 20.4786
lfoot -8.74891 -13.8209
ltoes 18.3978
1740
root 18.7894 17.552 -22.3059 541.194 85.1861 542.107
lowerback 2.91977 0.221064 -2.51527
upperback 2.10752 0.273127 2.03106
thorax 0.506345 0.113525 3.49361
lowerneck -15.6614 -2.8311 -9.33229
upperneck 27.6912 -1.50885 2.44754
head 11.7912 -1.13943 2.324
rclavicle -1.2921e-014 3.97569e-016
rhumerus -34.4194 -18.5523 -74.2915
rradius 25.9969
rwrist -8.03375
rhand -20.693 12.871
rfingers 7.12502
rthumb 5.67078 -17.0331
lclavicle -1.2921e-014 3.97569e-016
lhumerus -35.3928 5.13349 82.5707
lradius 37.739
lwrist 3.27835
lhand -16.5356 21.6765
lfingers 7.12502
lthumb 9.68341 51.4339
rfemur -26.9917 -9.6676 18.2932
rtibia 60.6285
rfoot -9.34007 -1.7522
rtoes -3.07975
lfemur -4.33792 3.44975 -24.0828
ltibia 20.605
lfoot -9.02304 -13.9651
ltoes 19.042
